<svg id="svg" version="1.1" xmlns="http://www.w3.org/2000/svg" xmlns:xlink="http://www.w3.org/1999/xlink" width="400" height="400" viewBox="0, 0, 400,400"><g id="svgg"><path id="path0" d="M79.600 7.148 C 79.600 7.340,78.115 7.625,76.300 7.781 C 62.019 9.011,55.840 12.998,55.812 21.000 C 55.795 25.855,55.752 25.802,74.995 45.200 C 93.593 63.948,93.936 64.365,95.410 70.025 C 100.477 89.480,79.375 105.320,61.800 95.255 C 60.000 94.224,55.152 89.654,42.397 76.961 C 23.799 58.454,23.234 58.000,18.804 58.000 C 10.661 58.000,6.251 65.234,5.322 80.114 C 5.187 82.267,4.925 84.123,4.739 84.238 C 4.255 84.537,4.313 90.000,4.800 90.000 C 5.029 90.000,5.200 91.215,5.200 92.844 C 5.200 105.939,13.798 127.321,23.197 137.600 C 24.102 138.590,25.328 140.016,25.921 140.769 C 32.824 149.528,52.116 161.224,63.600 163.613 C 64.370 163.773,66.350 164.183,68.000 164.525 C 79.415 166.891,91.563 166.381,107.800 162.853 C 108.900 162.614,110.160 162.318,110.600 162.195 C 111.248 162.013,123.468 174.043,174.985 225.578 L 238.570 289.185 237.220 295.693 C 233.499 313.630,234.118 330.025,239.039 343.800 C 241.201 349.854,248.769 363.438,251.184 365.600 C 251.307 365.710,252.665 367.238,254.204 368.995 C 260.633 376.341,269.515 383.147,278.633 387.713 C 286.625 391.715,296.864 394.674,305.300 395.420 C 307.005 395.571,308.400 395.853,308.400 396.047 C 308.400 396.538,318.300 396.500,318.467 396.007 C 318.540 395.791,320.220 395.455,322.200 395.260 C 336.765 393.824,342.526 390.125,342.545 382.200 C 342.555 377.425,342.228 377.007,324.785 359.529 C 307.954 342.664,306.183 340.758,304.804 338.025 C 294.784 318.179,314.965 297.784,335.200 307.308 C 338.570 308.894,338.751 309.059,356.000 326.199 C 372.403 342.499,373.538 343.541,375.800 344.385 C 382.877 347.023,389.738 342.547,391.215 334.328 C 391.426 333.158,391.782 331.390,392.006 330.400 C 393.764 322.653,393.780 309.958,392.044 301.600 C 391.838 300.610,391.541 299.080,391.383 298.200 C 389.075 285.301,378.374 267.033,367.678 257.730 C 366.205 256.449,364.550 254.980,364.000 254.465 C 360.007 250.731,346.716 243.275,340.400 241.226 C 336.097 239.830,335.528 239.675,332.200 238.987 C 319.326 236.328,308.333 236.601,292.000 239.986 C 289.910 240.419,287.840 240.779,287.400 240.787 C 286.860 240.796,265.927 220.128,223.214 177.414 L 159.829 114.028 160.358 111.714 C 166.938 82.927,164.028 62.639,150.428 42.472 C 137.343 23.070,111.511 7.600,92.197 7.600 C 91.209 7.600,90.400 7.420,90.400 7.200 C 90.400 6.953,88.333 6.800,85.000 6.800 C 82.030 6.800,79.600 6.957,79.600 7.148 M360.000 7.146 C 360.000 7.336,359.235 7.786,358.300 8.145 C 357.365 8.505,354.620 9.989,352.200 11.442 C 349.780 12.896,347.260 14.401,346.600 14.786 C 345.940 15.171,343.690 16.523,341.600 17.790 C 339.510 19.056,337.260 20.405,336.600 20.787 C 335.940 21.169,327.390 26.302,317.600 32.192 C 307.810 38.083,299.095 43.285,298.232 43.751 C 289.456 48.501,288.359 56.533,295.467 64.002 L 298.906 67.616 260.553 105.780 L 222.200 143.944 238.176 159.950 C 248.670 170.464,254.326 175.857,254.660 175.670 C 254.940 175.514,271.518 159.099,291.500 139.193 C 311.481 119.287,328.580 102.297,329.495 101.438 L 331.161 99.876 335.494 104.096 C 342.500 110.921,348.555 111.709,353.792 106.476 C 354.893 105.376,370.675 79.742,377.206 68.447 C 377.539 67.871,380.883 62.270,384.637 56.000 C 391.746 44.128,392.800 42.235,392.800 41.339 C 392.800 41.042,392.980 40.800,393.200 40.800 C 393.422 40.800,393.600 39.741,393.600 38.424 C 393.600 37.117,393.420 35.936,393.200 35.800 C 392.980 35.664,392.800 35.194,392.800 34.754 C 392.800 33.087,389.355 29.082,379.738 19.569 C 370.032 9.969,368.150 8.374,365.900 7.844 C 365.295 7.701,364.800 7.408,364.800 7.192 C 364.800 6.977,363.720 6.800,362.400 6.800 C 361.080 6.800,360.000 6.956,360.000 7.146 M70.955 265.300 C 40.576 295.715,14.913 321.680,13.927 323.000 C 12.299 325.179,9.200 330.178,9.200 330.626 C 9.200 330.726,8.851 331.572,8.424 332.504 C 7.180 335.220,5.996 339.173,5.490 342.300 C 5.231 343.895,4.880 345.200,4.710 345.200 C 4.274 345.200,4.321 355.060,4.761 355.905 C 4.960 356.287,5.347 357.860,5.622 359.400 C 7.400 369.367,14.321 380.622,22.161 386.298 C 23.282 387.109,24.290 387.870,24.400 387.988 C 26.686 390.439,36.890 394.447,43.300 395.411 C 44.125 395.535,44.800 395.808,44.800 396.018 C 44.800 396.242,47.038 396.400,50.200 396.400 C 53.362 396.400,55.600 396.242,55.600 396.018 C 55.600 395.808,56.275 395.526,57.100 395.390 C 61.749 394.628,66.385 393.191,70.200 391.332 C 76.815 388.109,76.375 388.526,134.998 329.956 L 190.997 274.009 159.002 242.004 C 141.405 224.402,126.823 210.000,126.599 210.000 C 126.374 210.000,101.335 234.885,70.955 265.300 M137.837 260.009 C 143.796 263.312,145.903 270.585,142.483 276.048 C 140.901 278.577,70.358 348.645,68.425 349.608 C 59.175 354.218,49.018 343.919,53.427 334.400 C 54.590 331.888,122.830 263.109,126.520 260.729 C 129.872 258.567,134.683 258.261,137.837 260.009 " stroke="none" fill="#04fba3" fill-rule="evenodd"></path><path id="path1" d="M78.235 5.544 C 78.118 5.733,76.802 6.009,75.311 6.159 C 60.399 7.652,54.000 12.108,54.000 21.000 C 54.000 26.559,53.720 26.195,72.591 45.200 C 88.727 61.450,91.016 63.982,92.515 67.236 C 99.636 82.689,85.116 100.224,68.680 96.020 C 62.501 94.440,62.189 94.188,43.391 75.523 C 23.892 56.163,24.200 56.400,18.546 56.400 C 11.092 56.400,6.755 60.826,5.022 70.200 C 4.900 70.860,4.530 72.840,4.200 74.600 C 3.871 76.360,3.601 78.914,3.601 80.276 C 3.600 81.638,3.420 82.864,3.200 83.000 C 2.676 83.324,2.676 91.076,3.200 91.400 C 3.420 91.536,3.600 92.849,3.600 94.317 C 3.600 117.726,24.288 148.456,47.400 159.379 C 54.027 162.511,56.590 163.550,59.900 164.447 C 60.615 164.641,61.875 164.984,62.700 165.209 C 74.099 168.319,91.611 168.316,105.200 165.201 C 105.970 165.025,107.590 164.675,108.800 164.423 L 111.000 163.964 173.840 227.062 L 236.679 290.160 236.310 291.780 C 233.799 302.820,233.399 306.477,233.403 318.400 C 233.407 332.826,235.256 341.223,240.934 352.600 C 253.053 376.887,277.961 394.407,304.111 397.040 C 305.602 397.190,306.918 397.467,307.035 397.656 C 307.322 398.121,319.493 398.097,319.781 397.631 C 319.906 397.429,321.222 397.145,322.704 397.002 C 338.090 395.513,344.170 391.320,344.170 382.200 C 344.170 376.328,344.682 376.999,325.218 357.400 C 307.283 339.340,306.536 338.455,304.836 333.234 C 300.000 318.386,314.834 303.024,329.959 307.216 C 336.048 308.903,336.343 309.143,355.009 327.677 C 374.365 346.895,374.243 346.800,379.596 346.800 C 390.229 346.800,394.948 337.278,394.958 315.800 C 394.975 280.707,370.426 247.253,338.400 238.728 C 337.630 238.523,336.370 238.186,335.600 237.979 C 324.668 235.040,307.356 234.871,294.800 237.580 C 292.490 238.078,289.880 238.636,289.000 238.820 L 287.400 239.153 224.678 176.476 C 162.378 114.221,161.958 113.791,162.140 112.400 C 162.240 111.630,162.994 107.940,163.815 104.200 L 165.306 97.400 165.342 87.200 C 165.488 45.513,134.416 9.863,94.687 6.137 C 93.195 5.997,91.880 5.729,91.764 5.541 C 91.487 5.094,78.511 5.096,78.235 5.544 M358.833 5.761 C 358.577 6.069,357.880 6.443,357.284 6.591 C 356.688 6.739,355.300 7.414,354.200 8.091 C 353.100 8.767,351.660 9.633,351.000 10.014 C 350.340 10.394,341.790 15.524,332.000 21.413 C 322.210 27.302,313.548 32.498,312.752 32.960 C 291.166 45.487,289.410 47.114,289.403 54.600 C 289.399 59.485,290.063 61.084,293.730 65.032 L 296.203 67.695 258.502 105.324 C 228.089 135.678,220.800 143.151,220.800 143.978 C 220.800 145.430,252.918 177.600,254.368 177.600 C 255.108 177.600,261.324 171.643,281.166 151.919 C 295.375 137.795,312.389 120.890,318.976 114.352 L 330.953 102.466 334.674 105.988 C 342.042 112.961,349.347 113.555,355.155 107.653 C 356.961 105.818,392.592 47.014,394.000 43.545 C 394.330 42.732,394.735 41.931,394.900 41.767 C 395.351 41.316,395.261 34.885,394.800 34.600 C 394.580 34.464,394.400 34.084,394.400 33.754 C 394.400 31.042,369.858 6.400,367.156 6.400 C 366.794 6.400,366.274 6.130,366.000 5.800 C 365.318 4.979,359.508 4.947,358.833 5.761 M90.400 7.200 C 90.400 7.420,91.209 7.600,92.197 7.600 C 111.511 7.600,137.343 23.070,150.428 42.472 C 164.028 62.639,166.938 82.927,160.358 111.714 L 159.829 114.028 223.214 177.414 C 265.927 220.128,286.860 240.796,287.400 240.787 C 287.840 240.779,289.910 240.419,292.000 239.986 C 308.333 236.601,319.326 236.328,332.200 238.987 C 340.818 240.767,350.026 244.772,358.225 250.307 C 360.851 252.080,363.450 253.951,364.000 254.465 C 364.550 254.980,366.205 256.449,367.678 257.730 C 378.374 267.033,389.075 285.301,391.383 298.200 C 391.541 299.080,391.838 300.610,392.044 301.600 C 393.780 309.958,393.764 322.653,392.006 330.400 C 391.782 331.390,391.426 333.158,391.215 334.328 C 389.738 342.547,382.877 347.023,375.800 344.385 C 373.538 343.541,372.403 342.499,356.000 326.199 C 338.751 309.059,338.570 308.894,335.200 307.308 C 314.965 297.784,294.784 318.179,304.804 338.025 C 306.183 340.758,307.954 342.664,324.785 359.529 C 342.228 377.007,342.555 377.425,342.545 382.200 C 342.526 390.125,336.765 393.824,322.200 395.260 C 320.220 395.455,318.540 395.791,318.467 396.007 C 318.300 396.500,308.400 396.538,308.400 396.047 C 308.400 395.853,307.005 395.571,305.300 395.420 C 300.305 394.978,292.941 393.357,287.790 391.566 C 275.168 387.175,262.898 378.930,254.204 368.995 C 252.665 367.238,251.307 365.710,251.184 365.600 C 248.769 363.438,241.201 349.854,239.039 343.800 C 234.118 330.025,233.499 313.630,237.220 295.693 L 238.570 289.185 174.985 225.578 C 123.468 174.043,111.248 162.013,110.600 162.195 C 110.160 162.318,108.900 162.614,107.800 162.853 C 91.563 166.381,79.415 166.891,68.000 164.525 C 66.350 164.183,64.370 163.773,63.600 163.613 C 52.116 161.224,32.824 149.528,25.921 140.769 C 25.328 140.016,24.102 138.590,23.197 137.600 C 13.798 127.321,5.200 105.939,5.200 92.844 C 5.200 91.215,5.029 90.000,4.800 90.000 C 4.313 90.000,4.255 84.537,4.739 84.238 C 4.925 84.123,5.187 82.267,5.322 80.114 C 6.251 65.234,10.661 58.000,18.804 58.000 C 23.234 58.000,23.799 58.454,42.397 76.961 C 62.930 97.394,64.419 98.422,73.400 98.384 C 90.537 98.310,101.351 80.362,93.497 65.025 C 92.468 63.015,89.299 59.619,74.995 45.200 C 55.752 25.802,55.795 25.855,55.812 21.000 C 55.840 12.998,62.019 9.011,76.300 7.781 C 78.115 7.625,79.600 7.340,79.600 7.148 C 79.600 6.957,82.030 6.800,85.000 6.800 C 88.333 6.800,90.400 6.953,90.400 7.200 M364.800 7.192 C 364.800 7.408,365.295 7.701,365.900 7.844 C 369.949 8.797,392.800 31.657,392.800 34.754 C 392.800 35.194,392.980 35.664,393.200 35.800 C 393.420 35.936,393.600 37.117,393.600 38.424 C 393.600 39.741,393.422 40.800,393.200 40.800 C 392.980 40.800,392.800 41.042,392.800 41.339 C 392.800 42.235,391.746 44.128,384.637 56.000 C 380.883 62.270,377.539 67.871,377.206 68.447 C 370.675 79.742,354.893 105.376,353.792 106.476 C 348.555 111.709,342.500 110.921,335.494 104.096 L 331.161 99.876 329.495 101.438 C 328.580 102.297,311.481 119.287,291.500 139.193 C 271.518 159.099,254.940 175.514,254.660 175.670 C 254.326 175.857,248.670 170.464,238.176 159.950 L 222.200 143.944 260.553 105.780 L 298.906 67.616 295.467 64.002 C 288.359 56.533,289.456 48.501,298.232 43.751 C 299.095 43.285,307.810 38.083,317.600 32.192 C 327.390 26.302,335.940 21.169,336.600 20.787 C 337.260 20.405,339.510 19.056,341.600 17.790 C 343.690 16.523,345.940 15.171,346.600 14.786 C 347.260 14.401,349.780 12.896,352.200 11.442 C 354.620 9.989,357.365 8.505,358.300 8.145 C 359.235 7.786,360.000 7.336,360.000 7.146 C 360.000 6.956,361.080 6.800,362.400 6.800 C 363.720 6.800,364.800 6.977,364.800 7.192 M69.152 264.700 C 20.093 313.815,12.637 321.434,10.733 324.400 C 7.167 329.956,5.039 335.071,3.993 340.600 C 3.702 342.140,3.314 343.571,3.132 343.780 C 2.650 344.332,2.714 356.699,3.200 357.000 C 3.420 357.136,3.600 357.690,3.600 358.231 C 3.600 362.238,7.741 372.482,11.511 377.800 C 14.302 381.738,23.978 390.800,25.391 390.800 C 25.548 390.800,26.168 391.150,26.770 391.578 C 29.434 393.476,38.662 396.795,41.293 396.802 C 41.792 396.804,42.716 397.074,43.346 397.402 C 44.980 398.255,55.420 398.255,57.054 397.402 C 57.684 397.074,58.596 396.804,59.080 396.802 C 63.154 396.791,73.134 392.470,78.434 388.423 C 82.655 385.201,192.400 275.015,192.400 274.000 C 192.400 272.352,128.246 208.400,126.593 208.400 C 125.525 208.400,118.994 214.801,69.152 264.700 M159.002 242.004 L 190.997 274.009 134.998 329.956 C 76.375 388.526,76.815 388.109,70.200 391.332 C 66.385 393.191,61.749 394.628,57.100 395.390 C 56.275 395.526,55.600 395.808,55.600 396.018 C 55.600 396.242,53.362 396.400,50.200 396.400 C 47.038 396.400,44.800 396.242,44.800 396.018 C 44.800 395.808,44.125 395.535,43.300 395.411 C 36.890 394.447,26.686 390.439,24.400 387.988 C 24.290 387.870,23.282 387.109,22.161 386.298 C 14.321 380.622,7.400 369.367,5.622 359.400 C 5.347 357.860,4.960 356.287,4.761 355.905 C 4.321 355.060,4.274 345.200,4.710 345.200 C 4.880 345.200,5.231 343.895,5.490 342.300 C 5.996 339.173,7.180 335.220,8.424 332.504 C 8.851 331.572,9.200 330.726,9.200 330.626 C 9.200 330.178,12.299 325.179,13.927 323.000 C 15.896 320.364,125.940 210.000,126.599 210.000 C 126.823 210.000,141.405 224.402,159.002 242.004 M129.720 259.161 C 126.883 259.892,123.246 263.323,89.523 297.084 C 50.585 336.065,52.412 333.987,52.404 339.304 C 52.392 347.518,61.223 353.198,68.425 349.608 C 70.358 348.645,140.901 278.577,142.483 276.048 C 147.778 267.588,139.506 256.642,129.720 259.161 M135.486 261.041 C 141.255 262.974,143.957 269.237,141.273 274.457 C 139.862 277.202,70.037 346.878,67.600 347.973 C 59.777 351.489,51.409 343.426,54.861 335.699 C 55.731 333.751,123.635 264.954,127.200 262.408 C 129.780 260.565,132.651 260.091,135.486 261.041 " stroke="none" fill="#041910" fill-rule="evenodd"></path></g></svg>